<svg xmlns="http://www.w3.org/2000/svg" xmlns:xlink="http://www.w3.org/1999/xlink" width="500" zoomAndPan="magnify" viewBox="0 0 375 374.999991" height="500" preserveAspectRatio="xMidYMid meet" version="1.0"><defs><g/><clipPath id="d4723517d0"><path d="M 173.6875 143.109375 L 286.9375 143.109375 L 286.9375 231.609375 L 173.6875 231.609375 Z M 173.6875 143.109375 " clip-rule="nonzero"/></clipPath></defs><rect x="-37.5" width="450" fill="#ffffff" y="-37.499999" height="449.999989" fill-opacity="1"/><rect x="-37.5" width="450" fill="#ffffff" y="-37.499999" height="449.999989" fill-opacity="1"/><g clip-path="url(#d4723517d0)"><path fill="#545454" d="M 284.839844 215.707031 C 284.839844 215.707031 282.441406 206.816406 281.632812 205.144531 C 280.835938 203.46875 278.328125 196.164062 278.328125 196.164062 C 278.328125 196.164062 276.539062 189.445312 276.484375 189.0625 C 275.410156 181.511719 270.90625 175.292969 270.90625 175.292969 C 271.449219 174.796875 271.371094 174.148438 271.371094 173.757812 C 271.371094 173.363281 270.386719 172.773438 270.386719 172.773438 C 269.648438 172.578125 269.371094 172.117188 269.371094 172.117188 C 269.835938 170.941406 268.609375 170.339844 268.609375 170.339844 C 268.691406 169.738281 268.332031 169.242188 268.332031 169.242188 C 268.4375 168.320312 267.8125 167.847656 267.8125 167.847656 C 267.375 166.367188 264.972656 166.484375 264.972656 166.484375 C 264.292969 165.722656 262.78125 165.640625 262.78125 165.640625 C 262.699219 165.039062 261.601562 164.324219 261.601562 164.324219 C 264.363281 162.582031 261.382812 161.207031 261.382812 161.207031 C 261.003906 161.105469 261.1875 160.550781 261.1875 160.550781 C 261.164062 159.671875 259.351562 158.554688 259.351562 158.554688 C 259.792969 153.914062 257.609375 151.417969 257.609375 151.417969 C 255.371094 148.417969 253.1875 147.980469 249.296875 148.164062 C 245.417969 148.359375 243.066406 149.5625 243.066406 149.5625 C 242.046875 150.070312 241.230469 151.488281 241.230469 151.488281 L 237.097656 151.847656 C 236.082031 152.792969 237.097656 154.214844 237.097656 154.214844 L 236.023438 154.46875 C 235.421875 154.570312 235.574219 155.308594 235.574219 155.308594 C 234.730469 155.207031 234.636719 156.046875 234.636719 156.046875 C 234.578125 156.765625 234.335938 156.949219 234.335938 156.949219 L 233.460938 157.964844 C 232.664062 159.28125 233.679688 160.226562 233.679688 160.226562 C 236.082031 161.359375 236.011719 163.574219 236.011719 163.574219 C 236.195312 164.808594 234.84375 168.492188 234.84375 168.492188 C 234.082031 170.824219 231.820312 172.742188 231.820312 172.742188 C 230.125 171.976562 224.386719 172.242188 222.863281 172.464844 C 221.328125 172.683594 220.265625 172.519531 220.265625 172.519531 C 216.769531 170.882812 210.074219 169.84375 210.074219 169.84375 C 206.550781 170.003906 204.773438 169.300781 204.773438 169.300781 L 203.226562 168.457031 C 200.066406 166.089844 194.453125 163.898438 188.808594 161.359375 C 183.164062 158.808594 182.460938 156.683594 182.460938 156.683594 C 182.519531 155.402344 182.136719 154.363281 181.78125 153.625 C 181.421875 152.886719 181.503906 151.628906 181.503906 151.628906 C 181.640625 150.910156 182.101562 150.367188 182.265625 148.890625 C 182.425781 147.414062 181.964844 147.054688 181.964844 147.054688 C 181.964844 147.054688 181.421875 146.734375 180.105469 146.953125 C 178.789062 147.171875 177.449219 147.828125 177.449219 147.828125 L 177.011719 148.246094 C 176.136719 147.042969 175.972656 145.808594 175.648438 145.105469 C 175.328125 144.402344 175.003906 143.652344 175.003906 143.652344 C 174.726562 143.234375 174.460938 143.109375 174.253906 143.121094 C 173.917969 143.132812 173.710938 143.5 173.839844 143.800781 C 174.046875 144.296875 174.414062 145.1875 174.449219 145.394531 C 174.507812 145.695312 174.808594 148.394531 174.808594 148.394531 C 175.222656 150.390625 176.019531 153.625 176.019531 153.625 C 178.480469 159.824219 181.351562 161.578125 181.351562 161.578125 C 181.351562 161.578125 181.539062 161.507812 186.015625 164.707031 C 190.496094 167.902344 199.324219 172.890625 199.324219 172.890625 C 200.609375 173.871094 203.539062 174.910156 203.539062 174.910156 C 212.394531 179.226562 221.710938 181.664062 221.710938 181.664062 L 221.351562 183.28125 C 218.8125 186.582031 219.308594 190.078125 219.675781 191.324219 C 220.035156 192.582031 219.828125 194.371094 219.828125 194.371094 C 218.949219 195.792969 219.03125 197.90625 219.03125 197.90625 C 219.46875 202.09375 220.957031 204.53125 221.871094 206.425781 C 222.78125 208.316406 224.640625 212.75 224.640625 212.75 L 224.179688 212.667969 C 220.902344 212.3125 210.707031 212.070312 210.707031 212.070312 C 210.707031 212.070312 203.875 212.449219 201.472656 214.46875 C 199.070312 216.492188 199.730469 220.046875 199.730469 220.046875 C 200.132812 223.070312 203.125 224.675781 203.125 224.675781 C 204.140625 225.113281 206.332031 225.875 206.332031 225.875 C 207.546875 226.3125 215.949219 228.101562 216.457031 228.242188 C 216.964844 228.390625 220.171875 229.085938 220.171875 229.085938 C 221.59375 230.03125 224.953125 230.433594 224.953125 230.433594 C 225.277344 231.011719 225.644531 231.195312 225.644531 231.195312 C 226.40625 231.671875 227.214844 231.164062 227.214844 231.164062 C 228.230469 231.855469 229.328125 231.703125 229.328125 231.703125 C 231.660156 231.890625 232.027344 230.863281 232.027344 230.863281 C 232.617188 229.660156 231.84375 228.851562 231.40625 228.277344 C 230.96875 227.699219 230.609375 227.261719 230.609375 227.261719 C 231.742188 227.328125 237.925781 227.699219 237.925781 227.699219 C 239.242188 227.847656 244.230469 228.355469 245.5 228.578125 C 246.769531 228.796875 249.574219 229.453125 249.574219 229.453125 C 257.886719 230.769531 273.585938 230.503906 273.585938 230.503906 C 273.585938 230.503906 284.402344 231.636719 285.820312 227.042969 C 287.265625 222.261719 284.839844 215.707031 284.839844 215.707031 Z M 268.011719 217.667969 C 266.589844 217.460938 262.332031 217.207031 262.332031 217.207031 C 262.332031 217.207031 255.554688 216.144531 253.71875 216.109375 C 253.71875 216.109375 251.757812 209.839844 244.070312 207.84375 C 244.070312 207.84375 243.285156 207.265625 242.335938 206.921875 C 242.335938 206.921875 240.929688 205.121094 238.46875 203.804688 C 238.46875 203.804688 237.234375 202.789062 237.488281 199.890625 C 237.488281 199.890625 238.792969 193.910156 239.773438 191.3125 C 240.753906 188.714844 241.738281 184.457031 243.929688 182.101562 C 246.113281 179.746094 245.511719 176.769531 244.945312 175.347656 C 244.945312 175.347656 244.667969 174.992188 245.386719 174.148438 C 246.101562 173.304688 246.921875 171.226562 246.964844 170.210938 C 247.023438 169.195312 250.046875 173.628906 254.125 168.574219 C 254.125 168.574219 257.5625 169.253906 259.019531 167.890625 L 259.617188 167.890625 C 259.617188 167.890625 259.191406 170.972656 262.90625 172.222656 C 265.703125 173.15625 266.601562 176.964844 266.878906 178.800781 C 266.972656 179.457031 266.984375 180.117188 266.890625 180.773438 C 266.730469 181.941406 266.335938 183.9375 265.425781 185.621094 C 264.871094 186.640625 264.90625 187.457031 265.136719 188.070312 C 265.4375 188.855469 266.152344 189.410156 266.984375 189.558594 C 267.59375 189.675781 268.507812 189.871094 269.234375 190.148438 C 269.914062 190.402344 270.421875 190.992188 270.605469 191.695312 C 270.871094 192.746094 271.289062 194.683594 271.335938 196.703125 C 271.371094 198.148438 271.484375 199.730469 271.589844 200.988281 C 271.714844 202.429688 271.773438 203.875 271.796875 205.328125 C 271.832031 208.894531 272.199219 216.144531 274.578125 218.417969 C 274.566406 218.40625 269.488281 217.875 268.011719 217.667969 Z M 268.011719 217.667969 " fill-opacity="1" fill-rule="nonzero"/></g><g fill="#545454" fill-opacity="1"><g transform="translate(92.543933, 208.415787)"><g><path d="M 22.375 -0.84375 C 20.925781 3.070312 19.15625 6.039062 17.0625 8.0625 C 14.96875 10.09375 12.03125 11.109375 8.25 11.109375 C 5.957031 11.109375 3.929688 10.789062 2.171875 10.15625 L 2.171875 3.859375 L 6.40625 3.859375 C 9.050781 3.859375 10.617188 2.570312 11.109375 0 L 0 -27.9375 L 11.328125 -27.9375 L 16.671875 -9.359375 L 17.03125 -9.359375 L 21.953125 -27.9375 L 32.328125 -27.9375 Z M 22.375 -0.84375 "/></g></g></g><g fill="#545454" fill-opacity="1"><g transform="translate(119.898029, 208.415787)"><g><path d="M 17.625 -28.5625 C 22.519531 -28.5625 26.367188 -27.316406 29.171875 -24.828125 C 31.984375 -22.347656 33.390625 -18.726562 33.390625 -13.96875 C 33.390625 -9.207031 31.984375 -5.582031 29.171875 -3.09375 C 26.367188 -0.601562 22.519531 0.640625 17.625 0.640625 C 12.71875 0.640625 8.867188 -0.59375 6.078125 -3.0625 C 3.296875 -5.53125 1.90625 -9.164062 1.90625 -13.96875 C 1.90625 -18.757812 3.296875 -22.390625 6.078125 -24.859375 C 8.867188 -27.328125 12.71875 -28.5625 17.625 -28.5625 Z M 17.625 -21.421875 C 14.164062 -21.421875 12.4375 -19.429688 12.4375 -15.453125 L 12.4375 -12.4375 C 12.4375 -8.476562 14.164062 -6.5 17.625 -6.5 C 21.113281 -6.5 22.859375 -8.476562 22.859375 -12.4375 L 22.859375 -15.453125 C 22.859375 -19.429688 21.113281 -21.421875 17.625 -21.421875 Z M 17.625 -21.421875 "/></g></g></g><g fill="#545454" fill-opacity="1"><g transform="translate(150.215091, 208.415787)"><g><path d="M 34.59375 -33.171875 C 34.59375 -31.015625 34.054688 -29.351562 32.984375 -28.1875 C 31.910156 -27.03125 30.296875 -26.171875 28.140625 -25.609375 C 29.171875 -24.828125 29.972656 -23.914062 30.546875 -22.875 C 31.128906 -21.84375 31.421875 -20.742188 31.421875 -19.578125 C 31.421875 -16.609375 30.300781 -14.363281 28.0625 -12.84375 C 25.820312 -11.332031 23.03125 -10.578125 19.6875 -10.578125 L 15.65625 -10.578125 C 13.4375 -10.578125 12.328125 -10.066406 12.328125 -9.046875 C 12.328125 -8.554688 12.570312 -8.160156 13.0625 -7.859375 C 13.5625 -7.554688 14.425781 -7.40625 15.65625 -7.40625 L 25.1875 -7.40625 C 28.289062 -7.40625 30.632812 -6.59375 32.21875 -4.96875 C 33.800781 -3.351562 34.59375 -1.1875 34.59375 1.53125 C 34.59375 3.539062 34.0625 5.269531 33 6.71875 C 31.945312 8.164062 30.519531 9.257812 28.71875 10 C 26.925781 10.738281 24.972656 11.109375 22.859375 11.109375 L 7.296875 11.109375 C 6.023438 11.109375 4.851562 10.804688 3.78125 10.203125 C 2.707031 9.609375 1.851562 8.789062 1.21875 7.75 C 0.582031 6.707031 0.265625 5.550781 0.265625 4.28125 C 0.265625 2.90625 0.6875 1.660156 1.53125 0.546875 C 2.375 -0.554688 3.429688 -1.390625 4.703125 -1.953125 C 3.859375 -2.554688 3.1875 -3.28125 2.6875 -4.125 C 2.195312 -4.96875 1.953125 -5.882812 1.953125 -6.875 C 1.953125 -8.25 2.460938 -9.492188 3.484375 -10.609375 C 4.515625 -11.722656 5.785156 -12.472656 7.296875 -12.859375 C 5.921875 -13.734375 4.828125 -14.742188 4.015625 -15.890625 C 3.203125 -17.046875 2.796875 -18.253906 2.796875 -19.515625 C 2.796875 -22.765625 4.109375 -25.082031 6.734375 -26.46875 C 9.367188 -27.863281 12.851562 -28.5625 17.1875 -28.5625 C 19.09375 -28.5625 20.628906 -28.457031 21.796875 -28.25 C 23.523438 -29.34375 24.644531 -30.335938 25.15625 -31.234375 C 25.664062 -32.140625 25.921875 -32.785156 25.921875 -33.171875 Z M 17.09375 -23.0625 C 15.925781 -23.0625 14.972656 -22.757812 14.234375 -22.15625 C 13.492188 -21.5625 13.125 -20.703125 13.125 -19.578125 C 13.125 -18.410156 13.46875 -17.535156 14.15625 -16.953125 C 14.84375 -16.367188 15.820312 -16.078125 17.09375 -16.078125 C 18.363281 -16.078125 19.359375 -16.367188 20.078125 -16.953125 C 20.796875 -17.535156 21.15625 -18.410156 21.15625 -19.578125 C 21.15625 -20.742188 20.796875 -21.613281 20.078125 -22.1875 C 19.359375 -22.769531 18.363281 -23.0625 17.09375 -23.0625 Z M 13.015625 0 C 12.203125 0 11.539062 0.21875 11.03125 0.65625 C 10.519531 1.101562 10.265625 1.734375 10.265625 2.546875 C 10.265625 3.347656 10.523438 3.992188 11.046875 4.484375 C 11.578125 4.984375 12.234375 5.234375 13.015625 5.234375 L 21.265625 5.234375 C 22.046875 5.234375 22.707031 4.992188 23.25 4.515625 C 23.800781 4.046875 24.078125 3.40625 24.078125 2.59375 C 24.078125 1.78125 23.8125 1.144531 23.28125 0.6875 C 22.75 0.226562 22.078125 0 21.265625 0 Z M 13.015625 0 "/></g></g></g><g fill="#545454" fill-opacity="1"><g transform="translate(180.532153, 208.415787)"><g><path d="M 16.984375 -28.5625 C 21.253906 -28.5625 24.726562 -27.847656 27.40625 -26.421875 C 30.082031 -24.992188 31.421875 -22.675781 31.421875 -19.46875 L 31.421875 -8.578125 C 31.421875 -7.972656 31.5625 -7.472656 31.84375 -7.078125 C 32.125 -6.691406 32.550781 -6.5 33.125 -6.5 L 35.03125 -6.5 L 35.03125 -0.421875 C 34.914062 -0.347656 34.640625 -0.234375 34.203125 -0.078125 C 33.765625 0.078125 33.140625 0.234375 32.328125 0.390625 C 31.515625 0.554688 30.578125 0.640625 29.515625 0.640625 C 27.472656 0.640625 25.789062 0.332031 24.46875 -0.28125 C 23.144531 -0.90625 22.238281 -1.765625 21.75 -2.859375 C 20.40625 -1.796875 18.90625 -0.945312 17.25 -0.3125 C 15.59375 0.320312 13.648438 0.640625 11.421875 0.640625 C 4.867188 0.640625 1.59375 -1.96875 1.59375 -7.1875 C 1.59375 -9.90625 2.320312 -11.976562 3.78125 -13.40625 C 5.25 -14.832031 7.359375 -15.8125 10.109375 -16.34375 C 12.859375 -16.875 16.453125 -17.140625 20.890625 -17.140625 L 20.890625 -18.515625 C 20.890625 -19.609375 20.507812 -20.4375 19.75 -21 C 19 -21.5625 18.023438 -21.84375 16.828125 -21.84375 C 15.734375 -21.84375 14.785156 -21.648438 13.984375 -21.265625 C 13.191406 -20.878906 12.796875 -20.265625 12.796875 -19.421875 L 12.796875 -19.203125 L 2.4375 -19.203125 C 2.394531 -19.378906 2.375 -19.628906 2.375 -19.953125 C 2.375 -22.585938 3.632812 -24.679688 6.15625 -26.234375 C 8.6875 -27.785156 12.296875 -28.5625 16.984375 -28.5625 Z M 20.890625 -12.171875 C 17.898438 -12.171875 15.6875 -11.84375 14.25 -11.1875 C 12.820312 -10.53125 12.109375 -9.660156 12.109375 -8.578125 C 12.109375 -6.804688 13.3125 -5.921875 15.71875 -5.921875 C 17.09375 -5.921875 18.296875 -6.289062 19.328125 -7.03125 C 20.367188 -7.769531 20.890625 -8.6875 20.890625 -9.78125 Z M 20.890625 -12.171875 "/></g></g></g></svg>