<svg xmlns="http://www.w3.org/2000/svg" xmlns:xlink="http://www.w3.org/1999/xlink" width="500" zoomAndPan="magnify" viewBox="0 0 375 374.999991" height="500" preserveAspectRatio="xMidYMid meet" version="1.0"><defs><g/><clipPath id="ffb2d4d0a8"><path d="M 98 179 L 277 179 L 277 256.570312 L 98 256.570312 Z M 98 179 " clip-rule="nonzero"/></clipPath><clipPath id="46ea1071d3"><path d="M 157 47.320312 L 249 47.320312 L 249 175 L 157 175 Z M 157 47.320312 " clip-rule="nonzero"/></clipPath></defs><g fill="#9c4821" fill-opacity="1"><g transform="translate(90.538918, 286.813546)"><g><path d="M 6.703125 -5.796875 C 5.640625 -8.273438 4.304688 -10.632812 2.703125 -12.875 C 2.335938 -13.375 1.984375 -13.707031 1.640625 -13.875 C 1.253906 -14.0625 0.8125 -14.210938 0.3125 -14.328125 L 0.3125 -14.671875 C 1.039062 -14.609375 2.125 -14.578125 3.5625 -14.578125 C 5.09375 -14.578125 6.203125 -14.609375 6.890625 -14.671875 L 6.890625 -14.203125 C 6.015625 -14.128906 5.515625 -14 5.390625 -13.8125 C 5.316406 -13.65625 5.265625 -13.46875 5.234375 -13.25 L 5.1875 -12.96875 C 6.25 -10.90625 7.332031 -8.9375 8.4375 -7.0625 C 10.707031 -11.101562 11.847656 -13.234375 11.859375 -13.453125 C 11.859375 -13.671875 11.679688 -13.835938 11.328125 -13.953125 L 9.921875 -14.328125 L 9.921875 -14.671875 C 10.648438 -14.609375 11.46875 -14.578125 12.375 -14.578125 C 13.300781 -14.578125 14.113281 -14.609375 14.8125 -14.671875 L 14.8125 -14.203125 C 14.175781 -14.171875 13.65625 -14.039062 13.25 -13.8125 C 13.101562 -13.71875 12.914062 -13.546875 12.6875 -13.296875 L 12.328125 -12.921875 C 10.484375 -9.734375 9.351562 -7.6875 8.9375 -6.78125 C 8.9375 -6.1875 8.96875 -4.203125 9.03125 -0.828125 C 9.03125 -0.429688 9.671875 -0.234375 10.953125 -0.234375 L 10.953125 0.21875 L 4.578125 0.21875 L 4.578125 -0.171875 C 4.617188 -0.171875 4.703125 -0.171875 4.828125 -0.171875 C 5.984375 -0.171875 6.570312 -0.347656 6.59375 -0.703125 C 6.625 -2.535156 6.660156 -4.234375 6.703125 -5.796875 Z M 6.703125 -5.796875 "/></g></g></g><g fill="#9c4821" fill-opacity="1"><g transform="translate(108.920105, 286.813546)"><g><path d="M 9.75 -0.1875 C 11.21875 -0.1875 12.414062 -0.851562 13.34375 -2.1875 C 14.28125 -3.53125 14.75 -5.238281 14.75 -7.3125 C 14.75 -9.78125 14.296875 -11.65625 13.390625 -12.9375 C 12.484375 -14.21875 11.207031 -14.859375 9.5625 -14.859375 C 8.78125 -14.859375 8.082031 -14.75 7.46875 -14.53125 C 6.851562 -14.3125 6.265625 -13.941406 5.703125 -13.421875 C 5.140625 -12.910156 4.703125 -12.132812 4.390625 -11.09375 C 4.085938 -10.0625 3.9375 -8.796875 3.9375 -7.296875 C 3.9375 -6.734375 3.988281 -6.15625 4.09375 -5.5625 C 4.195312 -4.976562 4.390625 -4.359375 4.671875 -3.703125 C 4.953125 -3.046875 5.296875 -2.460938 5.703125 -1.953125 C 6.117188 -1.453125 6.675781 -1.03125 7.375 -0.6875 C 8.082031 -0.351562 8.875 -0.1875 9.75 -0.1875 Z M 9.75 -15.265625 C 10.3125 -15.265625 10.894531 -15.203125 11.5 -15.078125 C 12.113281 -14.953125 12.785156 -14.703125 13.515625 -14.328125 C 14.253906 -13.960938 14.898438 -13.5 15.453125 -12.9375 C 16.015625 -12.375 16.484375 -11.601562 16.859375 -10.625 C 17.234375 -9.65625 17.421875 -8.550781 17.421875 -7.3125 C 17.421875 -6.113281 17.179688 -5.019531 16.703125 -4.03125 C 16.222656 -3.050781 15.597656 -2.25 14.828125 -1.625 C 14.066406 -1.007812 13.238281 -0.535156 12.34375 -0.203125 C 11.457031 0.117188 10.578125 0.28125 9.703125 0.28125 C 7.347656 0.28125 5.332031 -0.394531 3.65625 -1.75 C 1.988281 -3.101562 1.15625 -4.894531 1.15625 -7.125 C 1.15625 -8.40625 1.335938 -9.535156 1.703125 -10.515625 C 2.066406 -11.503906 2.535156 -12.289062 3.109375 -12.875 C 3.691406 -13.46875 4.378906 -13.945312 5.171875 -14.3125 C 5.960938 -14.675781 6.726562 -14.925781 7.46875 -15.0625 C 8.207031 -15.195312 8.96875 -15.265625 9.75 -15.265625 Z M 9.75 -15.265625 "/></g></g></g><g fill="#9c4821" fill-opacity="1"><g transform="translate(130.746604, 286.813546)"><g><path d="M 9.421875 -15.046875 C 10.003906 -15.046875 10.59375 -14.925781 11.1875 -14.6875 C 11.789062 -14.457031 12.253906 -14.222656 12.578125 -13.984375 C 12.910156 -13.753906 13.210938 -13.554688 13.484375 -13.390625 C 13.703125 -13.484375 13.894531 -13.6875 14.0625 -14 C 14.238281 -14.3125 14.34375 -14.628906 14.375 -14.953125 L 14.984375 -14.953125 L 14.90625 -10.109375 L 14.1875 -10.109375 C 13.726562 -12.953125 12.117188 -14.375 9.359375 -14.375 C 7.734375 -14.375 6.476562 -13.800781 5.59375 -12.65625 C 4.707031 -11.519531 4.265625 -9.609375 4.265625 -6.921875 C 4.265625 -5.734375 4.425781 -4.648438 4.75 -3.671875 C 5.070312 -2.691406 5.601562 -1.875 6.34375 -1.21875 C 7.082031 -0.5625 7.984375 -0.234375 9.046875 -0.234375 C 9.816406 -0.234375 10.5625 -0.398438 11.28125 -0.734375 C 12.007812 -1.078125 12.570312 -1.519531 12.96875 -2.0625 C 13.007812 -2.675781 13.03125 -3.3125 13.03125 -3.96875 C 13.03125 -4.539062 13.007812 -4.992188 12.96875 -5.328125 C 12.351562 -5.679688 11.617188 -5.882812 10.765625 -5.9375 L 10.765625 -6.453125 L 17.015625 -6.453125 L 17.015625 -5.9375 C 16.160156 -5.84375 15.609375 -5.640625 15.359375 -5.328125 C 15.296875 -5.203125 15.265625 -4.515625 15.265625 -3.265625 C 15.265625 -2.234375 15.28125 -1.117188 15.3125 0.078125 L 14.90625 0.078125 L 14.796875 -0.28125 C 14.734375 -0.53125 14.566406 -0.785156 14.296875 -1.046875 C 14.035156 -1.304688 13.71875 -1.4375 13.34375 -1.4375 C 13 -0.914062 12.40625 -0.453125 11.5625 -0.046875 C 10.726562 0.347656 9.882812 0.546875 9.03125 0.546875 C 6.726562 0.546875 4.847656 -0.132812 3.390625 -1.5 C 1.929688 -2.863281 1.203125 -4.675781 1.203125 -6.9375 C 1.203125 -8.144531 1.375 -9.226562 1.71875 -10.1875 C 2.0625 -11.144531 2.507812 -11.914062 3.0625 -12.5 C 3.613281 -13.09375 4.253906 -13.585938 4.984375 -13.984375 C 5.722656 -14.378906 6.457031 -14.65625 7.1875 -14.8125 C 7.914062 -14.96875 8.660156 -15.046875 9.421875 -15.046875 Z M 9.421875 -15.046875 "/></g></g></g><g fill="#9c4821" fill-opacity="1"><g transform="translate(151.518413, 286.813546)"><g><path d="M 10.0625 -6.46875 L 5.34375 -6.46875 L 3.125 -1.25 C 3.070312 -1.164062 3.046875 -1.085938 3.046875 -1.015625 C 3.046875 -0.796875 3.21875 -0.617188 3.5625 -0.484375 C 3.90625 -0.347656 4.25 -0.28125 4.59375 -0.28125 L 4.625 0.09375 L 0 0.125 L 0 -0.359375 C 0.0195312 -0.359375 0.0351562 -0.359375 0.046875 -0.359375 C 0.347656 -0.359375 0.671875 -0.421875 1.015625 -0.546875 C 1.359375 -0.679688 1.628906 -0.867188 1.828125 -1.109375 C 2.097656 -1.421875 3.203125 -3.785156 5.140625 -8.203125 L 8.046875 -14.8125 L 8.8125 -14.8125 L 13.953125 -2.65625 C 14.390625 -1.601562 14.863281 -0.953125 15.375 -0.703125 C 15.519531 -0.640625 15.671875 -0.597656 15.828125 -0.578125 C 15.984375 -0.554688 16.128906 -0.546875 16.265625 -0.546875 C 16.410156 -0.546875 16.515625 -0.535156 16.578125 -0.515625 L 16.53125 0.078125 C 15.476562 0.0234375 14.296875 0 12.984375 0 C 11.796875 0 10.835938 0.0234375 10.109375 0.078125 L 10.125 -0.375 C 10.125 -0.363281 10.265625 -0.359375 10.546875 -0.359375 C 11.109375 -0.359375 11.5 -0.488281 11.71875 -0.75 C 11.832031 -0.875 11.890625 -1.046875 11.890625 -1.265625 C 11.890625 -1.472656 11.84375 -1.703125 11.75 -1.953125 L 11.625 -2.296875 Z M 5.625 -7.03125 L 9.875 -7.03125 L 7.78125 -12.09375 Z M 5.625 -7.03125 "/></g></g></g><g fill="#9c4821" fill-opacity="1"><g transform="translate(171.329291, 286.813546)"><g/></g></g><g fill="#9c4821" fill-opacity="1"><g transform="translate(179.374538, 286.813546)"><g><path d="M 7.0625 -15.3125 C 8.257812 -15.3125 9.28125 -14.863281 10.125 -13.96875 C 10.519531 -14.019531 10.832031 -14.347656 11.0625 -14.953125 L 11.390625 -14.953125 L 11.328125 -10.40625 C 11.328125 -10.40625 11.175781 -10.40625 10.875 -10.40625 C 10.832031 -10.957031 10.769531 -11.476562 10.6875 -11.96875 C 10.613281 -12.457031 10.441406 -12.882812 10.171875 -13.25 C 9.441406 -14.320312 8.390625 -14.859375 7.015625 -14.859375 C 6.273438 -14.859375 5.644531 -14.570312 5.125 -14 C 4.613281 -13.4375 4.359375 -12.847656 4.359375 -12.234375 C 4.359375 -11.578125 4.671875 -10.957031 5.296875 -10.375 C 5.921875 -9.800781 6.75 -9.328125 7.78125 -8.953125 C 9.207031 -8.421875 10.351562 -7.738281 11.21875 -6.90625 C 12.082031 -6.082031 12.515625 -5.15625 12.515625 -4.125 C 12.515625 -2.800781 12.078125 -1.722656 11.203125 -0.890625 C 10.328125 -0.0546875 8.875 0.359375 6.84375 0.359375 C 6.40625 0.359375 5.984375 0.3125 5.578125 0.21875 C 5.171875 0.125 4.835938 0.00390625 4.578125 -0.140625 C 4.328125 -0.285156 4.078125 -0.429688 3.828125 -0.578125 C 3.585938 -0.722656 3.414062 -0.84375 3.3125 -0.9375 C 3 -0.800781 2.707031 -0.476562 2.4375 0.03125 L 1.953125 0.03125 L 2 -4.25 L 2.46875 -4.25 C 2.726562 -2.96875 3.179688 -1.972656 3.828125 -1.265625 C 4.484375 -0.566406 5.457031 -0.21875 6.75 -0.21875 C 8.9375 -0.21875 10.03125 -1.269531 10.03125 -3.375 C 10.03125 -4.75 8.875 -5.84375 6.5625 -6.65625 C 5.3125 -7.09375 4.328125 -7.710938 3.609375 -8.515625 C 2.890625 -9.328125 2.53125 -10.1875 2.53125 -11.09375 C 2.519531 -13.90625 4.03125 -15.3125 7.0625 -15.3125 Z M 7.0625 -15.3125 "/></g></g></g><g fill="#9c4821" fill-opacity="1"><g transform="translate(196.396347, 286.813546)"><g><path d="M 5.4375 -0.875 C 5.78125 -1.3125 5.953125 -1.753906 5.953125 -2.203125 L 5.984375 -14.1875 C 4.359375 -14.195312 3.535156 -14.203125 3.515625 -14.203125 C 3.140625 -14.203125 2.800781 -14.0625 2.5 -13.78125 C 2.207031 -13.5 1.984375 -13.148438 1.828125 -12.734375 C 1.671875 -12.328125 1.539062 -11.921875 1.4375 -11.515625 C 1.34375 -11.117188 1.285156 -10.742188 1.265625 -10.390625 L 0.828125 -10.390625 L 0.921875 -14.75 C 2.671875 -14.695312 4.894531 -14.671875 7.59375 -14.671875 C 10.144531 -14.671875 12.109375 -14.695312 13.484375 -14.75 L 13.546875 -10.390625 L 13.078125 -10.390625 C 12.941406 -12.890625 12.296875 -14.144531 11.140625 -14.15625 L 8.390625 -14.1875 L 8.421875 -2.203125 C 8.421875 -1.660156 8.566406 -1.21875 8.859375 -0.875 C 9.097656 -0.59375 9.738281 -0.441406 10.78125 -0.421875 L 10.78125 0.03125 L 3.59375 0.03125 L 3.59375 -0.421875 C 3.625 -0.421875 3.671875 -0.421875 3.734375 -0.421875 C 3.796875 -0.421875 3.84375 -0.421875 3.875 -0.421875 C 4.695312 -0.441406 5.21875 -0.59375 5.4375 -0.875 Z M 5.4375 -0.875 "/></g></g></g><g fill="#9c4821" fill-opacity="1"><g transform="translate(213.72285, 286.813546)"><g><path d="M 5.625 -5.109375 C 5.625 -4.265625 5.707031 -3.535156 5.875 -2.921875 C 6.039062 -2.304688 6.25 -1.828125 6.5 -1.484375 C 6.75 -1.148438 7.0625 -0.882812 7.4375 -0.6875 C 7.820312 -0.5 8.175781 -0.375 8.5 -0.3125 C 8.832031 -0.257812 9.21875 -0.234375 9.65625 -0.234375 C 10.269531 -0.234375 10.796875 -0.3125 11.234375 -0.46875 C 11.679688 -0.625 12.09375 -0.878906 12.46875 -1.234375 C 12.84375 -1.597656 13.128906 -2.117188 13.328125 -2.796875 C 13.523438 -3.484375 13.625 -4.328125 13.625 -5.328125 C 13.625 -5.492188 13.625 -5.707031 13.625 -5.96875 C 13.625 -6.226562 13.625 -6.578125 13.625 -7.015625 C 13.625 -9.171875 13.59375 -11.40625 13.53125 -13.71875 C 13.5 -13.882812 13.160156 -14.03125 12.515625 -14.15625 L 11.5625 -14.328125 L 11.5625 -14.671875 C 12.289062 -14.609375 13.140625 -14.578125 14.109375 -14.578125 C 15.140625 -14.578125 16 -14.609375 16.6875 -14.671875 L 16.6875 -14.203125 C 15.957031 -14.160156 15.269531 -13.984375 14.625 -13.671875 C 14.582031 -12.679688 14.5625 -11.484375 14.5625 -10.078125 L 14.625 -5.609375 C 14.625 -3.710938 14.171875 -2.242188 13.265625 -1.203125 C 12.359375 -0.160156 11.015625 0.390625 9.234375 0.453125 C 8.691406 0.453125 8.15625 0.398438 7.625 0.296875 C 7.09375 0.191406 6.546875 0.0078125 5.984375 -0.25 C 5.421875 -0.519531 4.929688 -0.863281 4.515625 -1.28125 C 4.097656 -1.695312 3.753906 -2.242188 3.484375 -2.921875 C 3.210938 -3.597656 3.078125 -4.367188 3.078125 -5.234375 C 3.078125 -5.273438 3.085938 -5.523438 3.109375 -5.984375 C 3.128906 -6.453125 3.15625 -7.113281 3.1875 -7.96875 C 3.21875 -8.832031 3.234375 -9.785156 3.234375 -10.828125 C 3.234375 -11.785156 3.21875 -12.75 3.1875 -13.71875 C 3.15625 -13.882812 2.820312 -14.03125 2.1875 -14.15625 L 1.21875 -14.328125 L 1.21875 -14.671875 C 1.957031 -14.609375 2.984375 -14.578125 4.296875 -14.578125 C 5.703125 -14.578125 6.75 -14.609375 7.4375 -14.671875 L 7.4375 -14.203125 C 6.507812 -14.128906 5.90625 -13.953125 5.625 -13.671875 C 5.613281 -12.640625 5.609375 -11.390625 5.609375 -9.921875 Z M 5.625 -5.109375 "/></g></g></g><g fill="#9c4821" fill-opacity="1"><g transform="translate(234.846227, 286.813546)"><g><path d="M 14.890625 -6.9375 C 14.890625 -6.09375 14.734375 -5.269531 14.421875 -4.46875 C 14.117188 -3.664062 13.671875 -2.914062 13.078125 -2.21875 C 12.484375 -1.519531 11.6875 -0.960938 10.6875 -0.546875 C 9.6875 -0.128906 8.546875 0.078125 7.265625 0.078125 C 7.160156 0.078125 6.84375 0.0703125 6.3125 0.0625 C 5.789062 0.0507812 5.066406 0.0390625 4.140625 0.03125 C 3.222656 0.03125 2.226562 0.03125 1.15625 0.03125 L 1.15625 -0.359375 C 2.414062 -0.460938 3.101562 -0.820312 3.21875 -1.4375 L 3.21875 -13.25 C 3.195312 -13.445312 3.140625 -13.617188 3.046875 -13.765625 C 2.953125 -13.921875 2.789062 -14.03125 2.5625 -14.09375 C 2.34375 -14.164062 2.179688 -14.210938 2.078125 -14.234375 C 1.972656 -14.265625 1.765625 -14.296875 1.453125 -14.328125 L 1.453125 -14.75 C 2.378906 -14.75 3.582031 -14.753906 5.0625 -14.765625 C 6.550781 -14.785156 7.488281 -14.796875 7.875 -14.796875 C 8.644531 -14.796875 9.410156 -14.65625 10.171875 -14.375 C 10.941406 -14.101562 11.691406 -13.679688 12.421875 -13.109375 C 13.160156 -12.546875 13.753906 -11.726562 14.203125 -10.65625 C 14.660156 -9.582031 14.890625 -8.34375 14.890625 -6.9375 Z M 12.328125 -6.796875 C 12.328125 -6.847656 12.328125 -6.894531 12.328125 -6.9375 C 12.328125 -8.175781 12.253906 -9.207031 12.109375 -10.03125 C 11.960938 -10.863281 11.691406 -11.601562 11.296875 -12.25 C 10.910156 -12.894531 10.359375 -13.367188 9.640625 -13.671875 C 8.929688 -13.984375 8.039062 -14.140625 6.96875 -14.140625 C 6.5 -14.140625 6.003906 -14.113281 5.484375 -14.0625 C 5.484375 -13.65625 5.484375 -12.953125 5.484375 -11.953125 C 5.484375 -11.097656 5.484375 -9.628906 5.484375 -7.546875 C 5.484375 -5.472656 5.484375 -4.066406 5.484375 -3.328125 C 5.484375 -2.421875 5.484375 -1.84375 5.484375 -1.59375 C 5.484375 -1.300781 5.601562 -1.03125 5.84375 -0.78125 C 6.09375 -0.539062 6.40625 -0.421875 6.78125 -0.421875 C 7.914062 -0.421875 8.847656 -0.535156 9.578125 -0.765625 C 10.304688 -1.003906 10.867188 -1.398438 11.265625 -1.953125 C 11.660156 -2.515625 11.929688 -3.164062 12.078125 -3.90625 C 12.234375 -4.644531 12.316406 -5.609375 12.328125 -6.796875 Z M 12.328125 -6.796875 "/></g></g></g><g fill="#9c4821" fill-opacity="1"><g transform="translate(253.836792, 286.813546)"><g><path d="M 5.75 -13.671875 C 5.75 -13.648438 5.742188 -13.207031 5.734375 -12.34375 C 5.722656 -11.488281 5.710938 -10.414062 5.703125 -9.125 C 5.703125 -7.84375 5.703125 -6.671875 5.703125 -5.609375 C 5.703125 -3.484375 5.71875 -1.96875 5.75 -1.0625 C 5.757812 -0.601562 6.351562 -0.375 7.53125 -0.375 L 7.546875 0 C 7.046875 -0.0195312 6.429688 -0.03125 5.703125 -0.03125 C 4.015625 -0.03125 2.578125 0.00390625 1.390625 0.078125 L 1.390625 -0.3125 C 1.390625 -0.3125 1.421875 -0.3125 1.484375 -0.3125 C 2.640625 -0.3125 3.25 -0.488281 3.3125 -0.84375 C 3.382812 -1.3125 3.421875 -5.601562 3.421875 -13.71875 C 3.421875 -13.882812 3.140625 -14.03125 2.578125 -14.15625 L 1.71875 -14.328125 L 1.71875 -14.671875 C 2.445312 -14.609375 3.390625 -14.578125 4.546875 -14.578125 C 5.753906 -14.578125 6.691406 -14.609375 7.359375 -14.671875 L 7.359375 -14.203125 C 6.285156 -14.128906 5.75 -13.953125 5.75 -13.671875 Z M 5.75 -13.671875 "/></g></g></g><g fill="#9c4821" fill-opacity="1"><g transform="translate(265.913295, 286.813546)"><g><path d="M 9.75 -0.1875 C 11.21875 -0.1875 12.414062 -0.851562 13.34375 -2.1875 C 14.28125 -3.53125 14.75 -5.238281 14.75 -7.3125 C 14.75 -9.78125 14.296875 -11.65625 13.390625 -12.9375 C 12.484375 -14.21875 11.207031 -14.859375 9.5625 -14.859375 C 8.78125 -14.859375 8.082031 -14.75 7.46875 -14.53125 C 6.851562 -14.3125 6.265625 -13.941406 5.703125 -13.421875 C 5.140625 -12.910156 4.703125 -12.132812 4.390625 -11.09375 C 4.085938 -10.0625 3.9375 -8.796875 3.9375 -7.296875 C 3.9375 -6.734375 3.988281 -6.15625 4.09375 -5.5625 C 4.195312 -4.976562 4.390625 -4.359375 4.671875 -3.703125 C 4.953125 -3.046875 5.296875 -2.460938 5.703125 -1.953125 C 6.117188 -1.453125 6.675781 -1.03125 7.375 -0.6875 C 8.082031 -0.351562 8.875 -0.1875 9.75 -0.1875 Z M 9.75 -15.265625 C 10.3125 -15.265625 10.894531 -15.203125 11.5 -15.078125 C 12.113281 -14.953125 12.785156 -14.703125 13.515625 -14.328125 C 14.253906 -13.960938 14.898438 -13.5 15.453125 -12.9375 C 16.015625 -12.375 16.484375 -11.601562 16.859375 -10.625 C 17.234375 -9.65625 17.421875 -8.550781 17.421875 -7.3125 C 17.421875 -6.113281 17.179688 -5.019531 16.703125 -4.03125 C 16.222656 -3.050781 15.597656 -2.25 14.828125 -1.625 C 14.066406 -1.007812 13.238281 -0.535156 12.34375 -0.203125 C 11.457031 0.117188 10.578125 0.28125 9.703125 0.28125 C 7.347656 0.28125 5.332031 -0.394531 3.65625 -1.75 C 1.988281 -3.101562 1.15625 -4.894531 1.15625 -7.125 C 1.15625 -8.40625 1.335938 -9.535156 1.703125 -10.515625 C 2.066406 -11.503906 2.535156 -12.289062 3.109375 -12.875 C 3.691406 -13.46875 4.378906 -13.945312 5.171875 -14.3125 C 5.960938 -14.675781 6.726562 -14.925781 7.46875 -15.0625 C 8.207031 -15.195312 8.96875 -15.265625 9.75 -15.265625 Z M 9.75 -15.265625 "/></g></g></g><path stroke-linecap="round" transform="matrix(0.75, 0, 0, 0.75, 119.349539, 300.253545)" fill="none" stroke-linejoin="miter" d="M 0.49749 0.500482 L 181.257918 0.500482 " stroke="#d1764c" stroke-width="1" stroke-opacity="1" stroke-miterlimit="4"/><path fill="#d1764c" d="M 192.988281 247.914062 C 192.222656 247.148438 190.769531 245.964844 188.914062 245.464844 C 187.058594 244.96875 184.800781 245.160156 182.601562 244.644531 C 180.402344 244.128906 178.261719 242.902344 176.730469 241.46875 C 175.199219 240.03125 174.28125 238.386719 172.617188 237.601562 C 170.957031 236.820312 168.546875 236.894531 165.886719 238.597656 C 163.226562 240.300781 160.320312 243.628906 158.390625 246.441406 C 156.457031 249.253906 155.5 251.550781 156.800781 252.738281 C 158.101562 253.921875 161.660156 254 165.371094 254.132812 C 169.082031 254.265625 172.945312 254.457031 176.636719 254.632812 C 180.328125 254.804688 183.847656 254.957031 186.257812 254.441406 C 188.667969 253.921875 189.964844 252.738281 191.058594 251.78125 C 192.148438 250.824219 193.027344 250.097656 193.429688 249.5625 C 193.832031 249.023438 193.753906 248.679688 192.988281 247.914062 " fill-opacity="1" fill-rule="evenodd"/><g clip-path="url(#ffb2d4d0a8)"><path fill="#ffffff" d="M 161.890625 224.574219 C 152.554688 225.261719 143.222656 225.949219 133.8125 226.640625 C 124.402344 227.328125 114.914062 228.015625 108.605469 230.082031 C 102.292969 232.148438 99.15625 235.59375 98.503906 239.191406 C 97.855469 242.789062 99.691406 246.539062 103.515625 249.023438 C 107.339844 251.511719 113.15625 252.738281 119.851562 253.347656 C 126.542969 253.960938 134.117188 253.960938 140.617188 253.863281 C 147.117188 253.765625 152.539062 253.566406 155.320312 252.3125 C 158.105469 251.0625 158.246094 248.75 159.171875 246.601562 C 160.09375 244.449219 161.800781 242.460938 163.59375 240.925781 C 165.386719 239.394531 167.265625 238.316406 169.46875 238.484375 C 171.675781 238.648438 174.203125 240.058594 178.175781 241.835938 C 182.152344 243.617188 187.570312 245.765625 193.398438 247.351562 C 199.222656 248.9375 205.460938 249.957031 211.523438 251.269531 C 217.585938 252.582031 223.476562 254.191406 232.234375 255.1875 C 240.996094 256.179688 252.625 256.5625 260.65625 255.796875 C 268.691406 255.03125 273.128906 253.121094 275.117188 250.210938 C 277.105469 247.304688 276.648438 243.398438 275.765625 239.878906 C 274.886719 236.359375 273.585938 233.222656 270.640625 229.394531 C 267.695312 225.566406 263.105469 221.050781 258.746094 215.464844 C 254.386719 209.878906 250.253906 203.222656 246.925781 197.632812 C 243.597656 192.046875 241.074219 187.53125 239.238281 184.433594 C 237.398438 181.332031 236.253906 179.648438 234.761719 179.6875 C 233.269531 179.726562 231.433594 181.484375 229.480469 183.015625 C 227.53125 184.546875 225.464844 185.847656 225.042969 187.378906 C 224.625 188.910156 225.847656 190.667969 227.1875 193.769531 C 228.527344 196.867188 229.980469 201.308594 231.777344 205.632812 C 233.574219 209.957031 235.71875 214.164062 237.746094 218.757812 C 239.773438 223.347656 241.683594 228.324219 241.953125 230.121094 C 242.21875 231.921875 240.84375 230.542969 238.050781 229.125 C 235.257812 227.710938 231.050781 226.257812 227.300781 225.109375 C 223.554688 223.960938 220.261719 223.117188 217.738281 221.472656 C 215.214844 219.828125 213.453125 217.378906 212.191406 214.929688 C 210.929688 212.480469 210.164062 210.03125 207.832031 208.425781 C 205.496094 206.816406 201.597656 206.050781 198.152344 205.515625 C 194.710938 204.980469 191.726562 204.675781 190.15625 203.03125 C 188.589844 201.382812 188.4375 198.398438 186.753906 197.789062 C 185.070312 197.175781 181.859375 198.933594 177.421875 200.542969 C 172.984375 202.148438 167.320312 203.601562 163.304688 204.636719 C 159.289062 205.667969 156.917969 206.28125 156.074219 207.429688 C 155.234375 208.578125 155.921875 210.261719 156.878906 212.824219 C 157.835938 215.390625 159.058594 218.832031 159.9375 220.9375 C 160.820312 223.042969 161.355469 223.808594 161.890625 224.574219 " fill-opacity="1" fill-rule="evenodd"/></g><path fill="#d1764c" d="M 185.273438 197.457031 C 187.109375 195.238281 187.46875 192.683594 188.410156 190.722656 C 189.355469 188.757812 190.886719 187.378906 190.003906 187.265625 C 189.125 187.148438 185.835938 188.296875 181.128906 187.683594 C 176.425781 187.074219 170.304688 184.699219 165.601562 182.367188 C 160.894531 180.03125 157.605469 177.734375 155.578125 175.898438 C 153.550781 174.0625 152.785156 172.683594 152.402344 173.871094 C 152.019531 175.058594 152.019531 178.808594 152.25 182.980469 C 152.480469 187.148438 152.9375 191.742188 153.613281 195.886719 C 154.289062 200.03125 155.183594 203.730469 155.605469 206.035156 C 156.03125 208.339844 155.988281 209.246094 157.492188 209.15625 C 158.996094 209.070312 162.050781 207.980469 165.527344 206.863281 C 169.003906 205.746094 172.90625 204.597656 176.515625 203.082031 C 180.125 201.5625 183.4375 199.675781 185.273438 197.457031 " fill-opacity="1" fill-rule="evenodd"/><path fill="#d1764c" d="M 225.042969 187.378906 C 222.890625 187.53125 220.734375 187.683594 218.546875 187.761719 C 216.359375 187.839844 214.140625 187.839844 213.222656 186.308594 C 212.304688 184.777344 212.6875 181.714844 212.878906 178.386719 C 213.070312 175.058594 213.070312 171.460938 212.34375 168.589844 C 211.617188 165.722656 210.164062 163.578125 208.558594 161.78125 C 206.949219 159.980469 205.191406 158.527344 203.507812 157.109375 C 201.824219 155.695312 200.21875 154.316406 200.984375 153.476562 C 201.75 152.632812 204.886719 152.328125 207.753906 152.824219 C 210.625 153.324219 213.222656 154.625 216.285156 156.882812 C 219.34375 159.140625 222.863281 162.351562 225.65625 165.566406 C 228.449219 168.78125 230.515625 171.996094 231.910156 174.347656 C 233.308594 176.703125 234.035156 178.195312 233.515625 179.496094 C 233 180.796875 231.242188 181.90625 229.621094 183.1875 C 228.003906 184.472656 226.523438 185.925781 225.042969 187.378906 " fill-opacity="1" fill-rule="evenodd"/><g clip-path="url(#46ea1071d3)"><path fill="#d1764c" d="M 199.835938 173.164062 C 203.230469 171.246094 206.738281 167.589844 210.226562 163.777344 C 213.714844 159.960938 217.179688 155.992188 219.90625 153.316406 C 222.636719 150.644531 224.625 149.265625 227.300781 146.28125 C 229.980469 143.296875 233.347656 138.707031 236.40625 134 C 239.46875 129.292969 242.222656 124.46875 243.941406 120.835938 C 245.664062 117.199219 246.351562 114.75 246.695312 108.285156 C 247.042969 101.816406 247.042969 91.332031 246.925781 83.949219 C 246.8125 76.5625 246.582031 72.277344 246.886719 68.871094 C 247.195312 65.464844 248.035156 62.941406 248.300781 60.679688 C 248.570312 58.425781 248.265625 56.433594 247.269531 54.558594 C 246.277344 52.683594 244.59375 50.925781 242.71875 49.585938 C 240.84375 48.246094 238.777344 47.328125 236.023438 47.558594 C 233.269531 47.785156 229.828125 49.164062 225.964844 51.078125 C 222.101562 52.992188 217.816406 55.441406 212.957031 57.542969 C 208.097656 59.648438 202.667969 61.410156 198.917969 63.589844 C 195.167969 65.769531 193.105469 68.375 191.726562 71.128906 C 190.351562 73.882812 189.660156 76.792969 190.769531 77.824219 C 191.878906 78.859375 194.789062 78.015625 197.542969 78.054688 C 200.296875 78.09375 202.898438 79.011719 205.117188 78.207031 C 207.335938 77.40625 209.171875 74.878906 211.390625 72.582031 C 213.605469 70.285156 216.207031 68.21875 218.65625 66.34375 C 221.105469 64.46875 223.398438 62.785156 225.847656 61.027344 C 228.296875 59.265625 230.898438 57.429688 231.738281 57.429688 C 232.582031 57.429688 231.664062 59.265625 231.777344 61.253906 C 231.894531 63.246094 233.039062 65.390625 234.226562 67.1875 C 235.410156 68.984375 236.636719 70.441406 237.171875 73.230469 C 237.707031 76.027344 237.554688 80.160156 237.324219 85.324219 C 237.09375 90.492188 236.789062 96.691406 236.140625 102.199219 C 235.488281 107.710938 234.492188 112.53125 232.390625 116.472656 C 230.285156 120.414062 227.074219 123.476562 224.433594 126.613281 C 221.792969 129.75 219.726562 132.964844 216.394531 134.925781 C 213.0625 136.886719 208.460938 137.59375 205.933594 136.285156 C 203.40625 134.980469 202.953125 131.65625 203.417969 128.195312 C 203.878906 124.734375 205.257812 121.136719 205.679688 120.035156 C 206.101562 118.933594 205.570312 120.324219 204.882812 119.460938 C 204.195312 118.601562 203.347656 115.488281 202.199219 113.304688 C 201.054688 111.125 199.601562 109.878906 198.382812 108.21875 C 197.160156 106.5625 196.164062 104.496094 194.632812 103.273438 C 193.105469 102.046875 191.039062 101.664062 190.160156 99.558594 C 189.277344 97.453125 189.585938 93.628906 188.859375 90.527344 C 188.132812 87.429688 186.371094 85.054688 184.878906 84.15625 C 183.386719 83.257812 182.164062 83.832031 181.167969 85.785156 C 180.175781 87.734375 179.410156 91.0625 178.378906 93.496094 C 177.34375 95.925781 176.042969 97.453125 175.082031 98.476562 C 174.117188 99.496094 173.492188 100.007812 173.761719 100.617188 C 174.027344 101.230469 175.1875 101.945312 175.539062 102.835938 C 175.890625 103.730469 175.429688 104.800781 175.125 105.875 C 174.820312 106.945312 174.667969 108.015625 174.894531 109.046875 C 175.125 110.082031 175.738281 111.078125 175.777344 112.453125 C 175.8125 113.832031 175.277344 115.59375 176.121094 116.359375 C 176.960938 117.125 179.179688 116.894531 180.941406 116.929688 C 182.699219 116.96875 184 117.277344 183.632812 119.8125 C 183.269531 122.351562 181.238281 127.121094 178.320312 130.171875 C 175.398438 133.21875 171.59375 134.546875 167.976562 136.773438 C 164.363281 139.003906 160.9375 142.128906 159.035156 146.273438 C 157.136719 150.421875 156.757812 155.582031 159.898438 158.585938 C 163.039062 161.589844 169.691406 162.429688 174.359375 163.003906 C 179.027344 163.578125 181.703125 163.882812 183.960938 165.910156 C 186.21875 167.941406 188.054688 171.691406 190.609375 173.476562 C 193.167969 175.261719 196.445312 175.082031 199.835938 173.164062 " fill-opacity="1" fill-rule="evenodd"/></g><path fill="#9c4821" d="M 205.359375 121.992188 C 207.613281 121.972656 211.03125 121.730469 214.824219 119.195312 C 218.617188 116.664062 222.789062 111.84375 224.070312 107.804688 C 225.351562 103.769531 223.746094 100.515625 224.128906 98.71875 C 224.507812 96.917969 226.882812 96.574219 228.429688 95.601562 C 229.980469 94.625 230.707031 93.015625 230.648438 91.582031 C 230.589844 90.148438 229.75 88.882812 229.675781 87.316406 C 229.597656 85.746094 230.285156 83.871094 229.65625 82.457031 C 229.023438 81.039062 227.070312 80.082031 225.238281 79.605469 C 223.398438 79.128906 221.679688 79.128906 220.035156 79.527344 C 218.390625 79.929688 216.820312 80.734375 215.921875 81.710938 C 215.023438 82.683594 214.792969 83.832031 213.722656 83.238281 C 212.652344 82.644531 210.738281 80.3125 208.117188 78.667969 C 205.496094 77.019531 202.167969 76.066406 198.574219 76.160156 C 194.976562 76.257812 191.113281 77.40625 188.550781 78.4375 C 185.988281 79.472656 184.726562 80.390625 184 81.5 C 183.273438 82.609375 183.082031 83.910156 183.601562 84.644531 C 184.121094 85.382812 185.351562 85.554688 186.390625 86.699219 C 187.433594 87.847656 188.289062 89.96875 188.570312 92.675781 C 188.855469 95.382812 188.570312 98.679688 188.617188 100.878906 C 188.667969 103.082031 189.050781 104.191406 190.109375 104.40625 C 191.164062 104.625 192.898438 103.949219 194.328125 104.695312 C 195.753906 105.445312 196.871094 107.617188 197.777344 109.945312 C 198.683594 112.273438 199.375 114.753906 199.859375 116.722656 C 200.347656 118.691406 200.628906 120.148438 201.316406 120.976562 C 202.003906 121.804688 203.101562 122.007812 205.359375 121.992188 " fill-opacity="1" fill-rule="evenodd"/><path fill="#ffffff" d="M 189.273438 186.242188 C 191.496094 185.082031 192.988281 182.902344 195.035156 180.550781 C 197.082031 178.195312 199.683594 175.671875 199.722656 174.90625 C 199.761719 174.140625 197.234375 175.132812 194.785156 173.984375 C 192.339844 172.839844 189.96875 169.546875 188.820312 165.453125 C 187.671875 161.359375 187.75 156.460938 188.742188 152.59375 C 189.738281 148.730469 191.648438 145.898438 193.832031 143.71875 C 196.011719 141.535156 198.457031 140.007812 201.414062 138.957031 C 204.367188 137.90625 207.824219 137.335938 207.75 136.839844 C 207.671875 136.34375 204.0625 135.917969 200.726562 137.042969 C 197.386719 138.171875 194.328125 140.847656 191.648438 143.757812 C 188.972656 146.664062 186.675781 149.804688 184.152344 151.714844 C 181.628906 153.628906 178.875 154.316406 175.8125 155.007812 C 172.753906 155.695312 169.386719 156.382812 166.519531 156.347656 C 163.648438 156.308594 161.277344 155.542969 160.09375 153.589844 C 158.90625 151.640625 158.90625 148.5 160.09375 145.59375 C 161.277344 142.683594 163.648438 140.007812 166.632812 137.902344 C 169.617188 135.796875 173.210938 134.265625 175.851562 132.699219 C 178.492188 131.128906 180.175781 129.523438 179.5625 129.40625 C 178.949219 129.292969 176.042969 130.667969 172.832031 132.582031 C 169.617188 134.496094 166.097656 136.945312 163.039062 139.585938 C 159.976562 142.226562 157.375 145.058594 155.273438 148.425781 C 153.167969 151.792969 151.5625 155.695312 151.101562 159.367188 C 150.644531 163.042969 151.332031 166.484375 151.371094 169.089844 C 151.410156 171.691406 150.796875 173.449219 151.636719 175.132812 C 152.480469 176.816406 154.773438 178.425781 157.683594 180.109375 C 160.589844 181.792969 164.109375 183.554688 168.117188 184.828125 C 172.128906 186.105469 176.628906 186.894531 180.359375 187.21875 C 184.089844 187.546875 187.046875 187.40625 189.273438 186.242188 " fill-opacity="1" fill-rule="evenodd"/></svg>